# Exported from Wings 3D 1.4.1
mtllib grid2.mtl
o grid1
#125 vertices, 105 faces
v -2.50000000 0.29377778 -2.50000000
v -2.00000000 0.18888889 -2.50000000
v -1.50000000 0.28880000 -2.50000000
v -1.00000000 0.10000000 -2.50000000
v -0.50000000 0.10000000 -2.50000000
v 0.0000000e+0 0.10000000 -2.50000000
v 0.50000000 0.39368889 -2.50000000
v 1.00000000 0.20488889 -2.50000000
v 1.50000000 0.10000000 -2.50000000
v 2.00000000 0.20488889 -2.50000000
v 2.50000000 0.20488889 -2.50000000
v -2.50000000 0.18888889 -2.00000000
v -2.00000000 0.30480000 -2.00000000
v -1.50000000 0.18888889 -2.00000000
v -1.00000000 0.28880000 -2.00000000
v -0.50000000 0.20488889 -2.00000000
v 0.0000000e+0 0.19724444 -2.00000000
v 0.50000000 0.19724444 -2.00000000
v 1.00000000 0.29377778 -2.00000000
v 1.50000000 0.10000000 -2.00000000
v 2.00000000 0.10000000 -2.00000000
v 2.50000000 0.20488889 -2.00000000
v -2.50000000 0.18888889 -1.50000000
v -2.00000000 0.28880000 -1.50000000
v -1.50000000 0.11600000 -1.50000000
v -1.00000000 0.20488889 -1.50000000
v -0.50000000 0.18888889 -1.50000000
v 0.0000000e+0 0.38604444 -1.50000000
v 0.50000000 0.38604444 -1.50000000
v 1.00000000 0.19724444 -1.50000000
v 1.50000000 0.29377778 -1.50000000
v 2.00000000 0.10000000 -1.50000000
v 2.50000000 0.20488889 -1.50000000
v -2.50000000 0.10000000 -1.00000000
v -2.00000000 0.18888889 -1.00000000
v -1.50000000 0.18888889 -1.00000000
v -1.00000000 0.28613333 -1.00000000
v -0.50000000 0.19724444 -1.00000000
v 0.0000000e+0 0.28613333 -1.00000000
v 0.50000000 0.20488889 -1.00000000
v 1.00000000 0.28613333 -1.00000000
v 1.50000000 0.40008889 -1.00000000
v 2.00000000 0.18888889 -1.00000000
v 2.50000000 0.10000000 -1.00000000
v -2.50000000 0.10000000 -0.50000000
v -2.00000000 0.10000000 -0.50000000
v -1.50000000 0.10000000 -0.50000000
v -1.00000000 0.38604444 -0.50000000
v -0.50000000 0.18888889 -0.50000000
v 0.0000000e+0 0.30977778 -0.50000000
v 0.50000000 0.20488889 -0.50000000
v 1.00000000 0.30213333 -0.50000000
v 1.50000000 0.10000000 -0.50000000
v 2.00000000 0.18888889 -0.50000000
v 2.50000000 0.20488889 -0.50000000
v -2.50000000 0.18888889 0.0000000e+0
v -2.00000000 0.18888889 0.0000000e+0
v -1.50000000 0.28880000 0.0000000e+0
v -1.00000000 0.19724444 0.0000000e+0
v -0.50000000 0.11600000 0.0000000e+0
v 0.0000000e+0 0.11600000 0.0000000e+0
v 0.50000000 0.20488889 0.0000000e+0
v 1.00000000 0.39102222 0.0000000e+0
v 1.50000000 0.11600000 0.0000000e+0
v 2.00000000 0.20488889 0.0000000e+0
v 2.50000000 0.28880000 0.0000000e+0
v -2.50000000 0.20488889 0.50000000
v -2.00000000 0.10000000 0.50000000
v -1.50000000 0.38604444 0.50000000
v -1.00000000 0.30480000 0.50000000
v -0.50000000 0.10000000 0.50000000
v 0.0000000e+0 0.20488889 0.50000000
v 0.50000000 0.10000000 0.50000000
v 1.00000000 0.30213333 0.50000000
v 1.50000000 0.54800000 0.50000000
v 2.00000000 0.51333333 0.50000000
v 2.50000000 0.10000000 0.50000000
v -2.50000000 0.10000000 1.00000000
v -2.00000000 0.30213333 1.00000000
v -1.50000000 0.28613333 1.00000000
v -1.00000000 0.10000000 1.00000000
v -0.50000000 0.18888889 1.00000000
v 0.0000000e+0 0.18888889 1.00000000
v 0.50000000 0.30213333 1.00000000
v 1.00000000 0.70320000 1.00000000
v 1.50000000 0.83315556 1.00000000
v 2.00000000 0.56666667 1.00000000
v 2.50000000 0.27564444 1.00000000
v -2.50000000 0.10000000 1.50000000
v -2.00000000 0.19724444 1.50000000
v -1.50000000 0.19724444 1.50000000
v -1.00000000 0.20488889 1.50000000
v -0.50000000 0.11600000 1.50000000
v 0.0000000e+0 0.11600000 1.50000000
v 0.50000000 0.58213333 1.50000000
v 1.00000000 0.66337778 1.50000000
v 1.50000000 0.79475556 1.50000000
v 2.00000000 0.77288889 1.50000000
v 2.50000000 0.50000000 1.50000000
v -2.50000000 0.10000000 2.00000000
v -2.00000000 0.19724444 2.00000000
v -1.50000000 0.20488889 2.00000000
v -1.00000000 0.28880000 2.00000000
v -0.50000000 0.10000000 2.00000000
v 0.0000000e+0 0.18888889 2.00000000
v 0.50000000 0.29377778 2.00000000
v 1.00000000 0.39102222 2.00000000
v 1.50000000 0.46177778 2.00000000
v 2.00000000 0.56168889 2.00000000
v 2.50000000 0.27564444 2.00000000
v -2.50000000 0.10000000 2.50000000
v -2.00000000 0.10000000 2.50000000
v -1.50000000 0.10000000 2.50000000
v -1.00000000 0.20488889 2.50000000
v -0.50000000 0.39368889 2.50000000
v 0.0000000e+0 0.28880000 2.50000000
v 0.50000000 0.10000000 2.50000000
v 1.00000000 0.10000000 2.50000000
v 1.50000000 0.38053333 2.50000000
v 2.00000000 0.27564444 2.50000000
v 2.50000000 0.27564444 2.50000000
v -2.50000000 4.8888889e-3 -2.50000000
v 2.50000000 4.8888889e-3 -2.50000000
v -2.50000000 -0.10000000 2.50000000
v 2.50000000 4.8888889e-3 2.50000000
vn -0.57947118 0.57308489 -0.57947118
vn 2.2131375e-3 0.88953166 -0.45686818
vn 4.5699868e-2 0.87369794 -0.48431750
vn 7.0556222e-2 0.81619086 -0.57345819
vn 3.5985686e-2 0.79421467 -0.60657076
vn -0.12164751 0.86227864 -0.49160699
vn -8.9594118e-2 0.92133183 -0.37831278
vn 0.17040920 0.88026341 -0.44282844
vn 8.3015905e-2 0.88965629 -0.44902120
vn -9.6909050e-2 0.92392103 -0.37010615
vn 0.55744029 0.61524032 -0.55744029
vn -0.52571469 0.85065864 1.9863815e-3
vn 1.7891069e-2 0.99966450 1.8729665e-2
vn 5.0210723e-2 0.99816284 3.3909063e-2
vn 2.1473107e-2 0.99931548 -3.0124280e-2
vn 7.8861065e-4 0.99026781 -0.13917274
vn -0.11658090 0.98031857 -0.15932479
vn -2.5165711e-2 0.99771270 -6.2737918e-2
vn 0.14211475 0.98896491 -4.1854608e-2
vn 0.11805773 0.99073253 -6.7167144e-2
vn -5.7516852e-2 0.99833073 5.2494386e-3
vn 0.33087296 0.94236642 4.9685067e-2
vn -0.58066563 0.80994781 8.2534655e-2
vn 1.3657223e-2 0.99674492 7.9454641e-2
vn 2.1169471e-2 0.99934459 2.9364146e-2
vn -4.1109542e-2 0.99914947 3.2158184e-3
vn -6.5037483e-2 0.99772486 -1.7754425e-2
vn -9.8739582e-2 0.99420727 -4.2454701e-2
vn 7.0982354e-2 0.99724557 -2.1512434e-2
vn 2.3322115e-2 0.99713072 -7.2016712e-2
vn 0.11518975 0.97937534 -0.16599777
vn 8.6212365e-2 0.99222055 -8.9809894e-2
vn 0.36623288 0.93049282 7.5231320e-3
vn -0.54066919 0.83331732 0.11514800
vn -2.5366536e-2 0.99253037 0.11933145
vn -9.4678932e-2 0.99545068 1.0670166e-2
vn -4.1565515e-2 0.99534791 -8.6918664e-2
vn -2.6079487e-2 0.99930374 -2.6681411e-2
vn -5.6006900e-2 0.99506598 8.1895760e-2
vn 4.8722019e-2 0.99545200 8.1862547e-2
vn -4.7925123e-2 0.99800592 4.1077663e-2
vn 9.6675622e-2 0.99403502 5.0479813e-2
vn 0.13923068 0.99024745 4.9807300e-3
vn 0.46818338 0.88276914 -3.9025141e-2
vn -0.48189552 0.87538442 -3.8455537e-2
vn -4.6839005e-2 0.99787285 -4.5341893e-2
vn -0.16470494 0.98600127 -2.5957373e-2
vn -3.8776227e-3 0.99925321 3.8444597e-2
vn 5.5155445e-2 0.99313768 0.10312823
vn -3.1242784e-2 0.99409605 0.10390824
vn -6.3509293e-2 0.99783884 1.6858891e-2
vn 1.7337271e-2 0.99964398 2.0281240e-2
vn 0.11827942 0.98659875 0.11239613
vn -2.1746621e-2 0.99967877 1.3017278e-2
vn 0.43894658 0.89383889 -9.1531096e-2
vn -0.41240353 0.90977320 -4.7286870e-2
vn -9.0152375e-2 0.99123561 -9.6563557e-2
vn -0.12310736 0.98498027 -0.12107210
vn 0.13167384 0.99123643 -1.0599152e-2
vn 8.1098153e-2 0.99282031 8.7925603e-2
vn -4.7604509e-2 0.99399550 9.8522921e-2
vn -0.15228521 0.98538532 7.6321558e-2
vn -4.5887076e-2 0.99513023 -8.7236483e-2
vn 6.2817286e-2 0.95911887 -0.27594379
vn -1.7117857e-3 0.97557214 -0.21967262
vn 0.52875803 0.84372569 -9.2422393e-2
vn -0.44754293 0.89419674 -1.0840770e-2
vn -0.15581606 0.98723069 -3.3119676e-2
vn -5.4009721e-2 0.99852441 -5.6532474e-3
vn 0.20475632 0.97840174 2.8370329e-2
vn 4.5815088e-2 0.99850032 -2.9968011e-2
vn -5.0277919e-2 0.99566818 -7.8211343e-2
vn -0.21382092 0.96963542 -0.11869193
vn -0.28830749 0.90768399 -0.30494027
vn -9.7179522e-3 0.88976772 -0.45631017
vn 0.28944162 0.90440124 -0.31349952
vn 0.72706444 0.67686642 -0.11501804
vn -0.57935520 0.81507375 1.5268454e-3
vn -0.15884618 0.98700446 2.4291842e-2
vn 4.6393766e-2 0.99462462 9.2571461e-2
vn 0.13617628 0.98673542 8.8369907e-2
vn 2.6042225e-3 0.99924082 3.8871732e-2
vn -0.15632464 0.98491615 -7.4180739e-2
vn -0.35692591 0.89565672 -0.26533550
vn -0.37145319 0.88048022 -0.29457953
vn -7.1227089e-5 0.96824931 -0.24998655
vn 0.39867236 0.88121652 -0.25400353
vn 0.76504569 0.61144274 -0.20209620
vn -0.60608931 0.79433677 4.1046698e-2
vn -0.11840468 0.99039123 7.1453062e-2
vn 2.3476756e-2 0.99953998 1.9200986e-2
vn 8.8905878e-2 0.99470786 -5.1497697e-2
vn 4.5224982e-2 0.99897387 -2.4311477e-3
vn -0.27828776 0.96017812 2.4777024e-2
vn -0.41098912 0.90866232 7.3625635e-2
vn -0.26433073 0.93746650 0.22646376
vn -5.7971858e-2 0.96880786 0.24093693
vn 0.30732711 0.94750415 8.8237973e-2
vn 0.76136291 0.64832377 1.6732927e-3
vn -0.54610242 0.83672084 4.0870284e-2
vn -7.6085624e-2 0.99448621 7.2167536e-2
vn -7.2840448e-2 0.99479457 7.1260297e-2
vn -1.5924744e-3 0.99894615 -4.5869910e-2
vn 4.9212784e-2 0.98309367 -0.17636594
vn -0.12558515 0.99134267 -3.8315462e-2
vn -0.16751610 0.93577949 0.31025007
vn -0.18210977 0.87807944 0.44250710
vn -0.13820353 0.89675961 0.42038314
vn 0.16880509 0.91345986 0.37026467
vn 0.68114129 0.68973995 0.24557146
vn -0.59585764 0.53843046 0.59585764
vn -4.3992165e-2 0.83502372 0.54845244
vn -7.9332770e-2 0.81307808 0.57672381
vn -8.3515835e-2 0.89044458 0.44736290
vn 7.6081722e-3 0.97569841 0.21898568
vn 4.7692948e-2 0.93430906 0.35325905
vn -1.6123803e-3 0.77747246 0.62891491
vn -0.15720353 0.70235566 0.69425037
vn -0.12322320 0.73159537 0.67051044
vn 0.10885030 0.75259552 0.64942405
vn 0.62784067 0.46003498 0.62784067
vn -0.57129517 -0.57728676 -0.58340537
vn 0.57936859 -0.57329232 -0.57936859
vn -0.57533195 -0.58136588 0.57533195
vn 0.58340537 -0.57728676 0.57129517
g grid1_default
usemtl default
s 1
f 1//1 12//12 13//13 2//2
f 1//1 122//122 124//124 111//111 100//100 89//89 78//78 67//67 56//56 45//45 34//34 23//23 12//12
f 2//2 3//3 4//4 5//5 6//6 7//7 8//8 9//9 10//10 11//11 123//123 122//122 1//1
f 2//2 13//13 14//14 3//3
f 3//3 14//14 15//15 4//4
f 4//4 15//15 16//16 5//5
f 5//5 16//16 17//17 6//6
f 6//6 17//17 18//18 7//7
f 7//7 18//18 19//19 8//8
f 8//8 19//19 20//20 9//9
f 9//9 20//20 21//21 10//10
f 10//10 21//21 22//22 11//11
f 12//12 23//23 24//24 13//13
f 13//13 24//24 25//25 14//14
f 14//14 25//25 26//26 15//15
f 15//15 26//26 27//27 16//16
f 16//16 27//27 28//28 17//17
f 17//17 28//28 29//29 18//18
f 18//18 29//29 30//30 19//19
f 19//19 30//30 31//31 20//20
f 20//20 31//31 32//32 21//21
f 21//21 32//32 33//33 22//22
f 22//22 33//33 44//44 55//55 66//66 77//77 88//88 99//99 110//110 121//121 125//125 123//123 11//11
f 23//23 34//34 35//35 24//24
f 24//24 35//35 36//36 25//25
f 25//25 36//36 37//37 26//26
f 26//26 37//37 38//38 27//27
f 27//27 38//38 39//39 28//28
f 28//28 39//39 40//40 29//29
f 29//29 40//40 41//41 30//30
f 30//30 41//41 42//42 31//31
f 31//31 42//42 43//43 32//32
f 32//32 43//43 44//44 33//33
f 34//34 45//45 46//46 35//35
f 35//35 46//46 47//47 36//36
f 36//36 47//47 48//48 37//37
f 37//37 48//48 49//49 38//38
f 38//38 49//49 50//50 39//39
f 39//39 50//50 51//51 40//40
f 40//40 51//51 52//52 41//41
f 41//41 52//52 53//53 42//42
f 42//42 53//53 54//54 43//43
f 43//43 54//54 55//55 44//44
f 45//45 56//56 57//57 46//46
f 46//46 57//57 58//58 47//47
f 47//47 58//58 59//59 48//48
f 48//48 59//59 60//60 49//49
f 49//49 60//60 61//61 50//50
f 50//50 61//61 62//62 51//51
f 51//51 62//62 63//63 52//52
f 52//52 63//63 64//64 53//53
f 53//53 64//64 65//65 54//54
f 54//54 65//65 66//66 55//55
f 56//56 67//67 68//68 57//57
f 57//57 68//68 69//69 58//58
f 58//58 69//69 70//70 59//59
f 59//59 70//70 71//71 60//60
f 60//60 71//71 72//72 61//61
f 61//61 72//72 73//73 62//62
f 62//62 73//73 74//74 63//63
f 63//63 74//74 75//75 64//64
f 64//64 75//75 76//76 65//65
f 65//65 76//76 77//77 66//66
f 67//67 78//78 79//79 68//68
f 68//68 79//79 80//80 69//69
f 69//69 80//80 81//81 70//70
f 70//70 81//81 82//82 71//71
f 71//71 82//82 83//83 72//72
f 72//72 83//83 84//84 73//73
f 73//73 84//84 85//85 74//74
f 74//74 85//85 86//86 75//75
f 75//75 86//86 87//87 76//76
f 76//76 87//87 88//88 77//77
f 78//78 89//89 90//90 79//79
f 79//79 90//90 91//91 80//80
f 80//80 91//91 92//92 81//81
f 81//81 92//92 93//93 82//82
f 82//82 93//93 94//94 83//83
f 83//83 94//94 95//95 84//84
f 84//84 95//95 96//96 85//85
f 85//85 96//96 97//97 86//86
f 86//86 97//97 98//98 87//87
f 87//87 98//98 99//99 88//88
f 89//89 100//100 101//101 90//90
f 90//90 101//101 102//102 91//91
f 91//91 102//102 103//103 92//92
f 92//92 103//103 104//104 93//93
f 93//93 104//104 105//105 94//94
f 94//94 105//105 106//106 95//95
f 95//95 106//106 107//107 96//96
f 96//96 107//107 108//108 97//97
f 97//97 108//108 109//109 98//98
f 98//98 109//109 110//110 99//99
f 100//100 111//111 112//112 101//101
f 101//101 112//112 113//113 102//102
f 102//102 113//113 114//114 103//103
f 103//103 114//114 115//115 104//104
f 104//104 115//115 116//116 105//105
f 105//105 116//116 117//117 106//106
f 106//106 117//117 118//118 107//107
f 107//107 118//118 119//119 108//108
f 108//108 119//119 120//120 109//109
f 109//109 120//120 121//121 110//110
f 111//111 124//124 125//125 121//121 120//120 119//119 118//118 117//117 116//116 115//115 114//114 113//113 112//112
f 123//123 125//125 124//124 122//122
